<svg version="1.1" xmlns="http://www.w3.org/2000/svg" viewBox="0 0 650.5596889977951 1031.6474403633083" width="650.5596889977951" height="1031.6474403633083">
  <!-- svg-source:excalidraw -->
  
  <defs>
    <style class="style-fonts">
      @font-face {
        font-family: "Virgil";
        src: url("https://excalidraw.com/Virgil.woff2");
      }
      @font-face {
        font-family: "Cascadia";
        src: url("https://excalidraw.com/Cascadia.woff2");
      }
    </style>
  </defs>
  <g stroke-linecap="round" transform="translate(179.28559755724655 10) rotate(0 60 17.5)"><path d="M8.75 0 M8.75 0 C49.87 -1.52, 87.88 0.46, 111.25 0 M8.75 0 C34.88 1.87, 60.92 2.53, 111.25 0 M111.25 0 C114 -2.74, 119.57 6.87, 120 8.75 M111.25 0 C119.3 -1.07, 115.47 5.56, 120 8.75 M120 8.75 C116.72 16.57, 122.45 20.6, 120 26.25 M120 8.75 C121.46 13.78, 119.23 22.06, 120 26.25 M120 26.25 C118.53 30.35, 119.6 37.02, 111.25 35 M120 26.25 C124.35 29.05, 118.76 31.35, 111.25 35 M111.25 35 C75.99 39.65, 34.53 39.77, 8.75 35 M111.25 35 C78.09 32.3, 46.67 31.14, 8.75 35 M8.75 35 C-1.06 33.52, 1.94 28.23, 0 26.25 M8.75 35 C2.99 37.1, 1.53 27.64, 0 26.25 M0 26.25 C-0.92 22.83, 2.16 19.35, 0 8.75 M0 26.25 C0.39 20.6, -1.51 14.48, 0 8.75 M0 8.75 C2.07 4.25, 5.55 -1.58, 8.75 0 M0 8.75 C-0.08 4.1, -0.01 -3.38, 8.75 0" stroke="#000000" stroke-width="1" fill="none"></path></g><g transform="translate(218.78559755724655 15.5) rotate(0 20.5 12)"><text x="20.5" y="19" font-family="Cascadia, Segoe UI Emoji" font-size="20px" fill="#000000" text-anchor="middle" style="white-space: pre;" direction="ltr">登录</text></g><g stroke-linecap="round" transform="translate(182.28559755724655 114) rotate(0 60 17)"><path d="M8.5 0 M8.5 0 C44.03 0.65, 76.79 -0.33, 111.5 0 M8.5 0 C38.1 -0.29, 64.74 -3, 111.5 0 M111.5 0 C113.38 0.8, 119.23 3.47, 120 8.5 M111.5 0 C112.98 3.14, 117.08 0.67, 120 8.5 M120 8.5 C118.31 17.63, 122.12 20.76, 120 25.5 M120 8.5 C121 13.47, 121.73 17.98, 120 25.5 M120 25.5 C118.23 29.37, 120.29 32.86, 111.5 34 M120 25.5 C119.26 28.1, 121.33 33.99, 111.5 34 M111.5 34 C89.97 32.51, 63.33 38.87, 8.5 34 M111.5 34 C87.53 33.13, 59.62 32.17, 8.5 34 M8.5 34 C6.69 30.64, 0.12 29.54, 0 25.5 M8.5 34 C3.12 35.84, 3.44 32, 0 25.5 M0 25.5 C-3.08 21.67, -2.09 14.72, 0 8.5 M0 25.5 C-0.17 18.4, 0.17 12.24, 0 8.5 M0 8.5 C-2.04 -0.84, 0.7 -2.22, 8.5 0 M0 8.5 C-3.26 3.68, 2.77 0.48, 8.5 0" stroke="#000000" stroke-width="1" fill="none"></path></g><g transform="translate(201.78559755724655 119) rotate(0 40.5 12)"><text x="40.5" y="19" font-family="Cascadia, Segoe UI Emoji" font-size="20px" fill="#000000" text-anchor="middle" style="white-space: pre;" direction="ltr">上传模板</text></g><g stroke-linecap="round"><g transform="translate(237.2054203870689 52) rotate(0 0.23963138126089234 29.69228722468017)"><path d="M-2.5 2.04 C-1.73 11.17, 2.55 46.52, 2.98 56.1 M1.34 0.68 C2.02 10, 2.15 49.68, 1.5 58.7" stroke="#000000" stroke-width="1" fill="none"></path></g><g transform="translate(237.2054203870689 52) rotate(0 0.23963138126089234 29.69228722468017)"><path d="M-4.79 33.19 C-7.95 35.8, -0.83 47.95, 2.72 61.92 M-8.59 31.76 C-4.68 40.42, 0.74 53.23, 1.15 58.35" stroke="#000000" stroke-width="1" fill="none"></path></g><g transform="translate(237.2054203870689 52) rotate(0 0.23963138126089234 29.69228722468017)"><path d="M15.04 33.7 C7.11 35.84, 9.44 47.87, 2.72 61.92 M11.25 32.28 C7.64 40.41, 5.55 53.03, 1.15 58.35" stroke="#000000" stroke-width="1" fill="none"></path></g></g><mask></mask><g stroke-linecap="round" transform="translate(183.28559755724655 214) rotate(0 60 17)"><path d="M8.5 0 M8.5 0 C38.76 -3.1, 67.3 -3.1, 111.5 0 M8.5 0 C45.94 0.15, 80.54 -0.17, 111.5 0 M111.5 0 C115.5 -0.11, 116.59 6.22, 120 8.5 M111.5 0 C121.11 -0.89, 119.44 4.11, 120 8.5 M120 8.5 C119.19 13.98, 122.32 13.63, 120 25.5 M120 8.5 C118.72 14.07, 120 17.47, 120 25.5 M120 25.5 C118.31 34.89, 113.5 36.95, 111.5 34 M120 25.5 C120.42 34.27, 119.93 35.45, 111.5 34 M111.5 34 C83.17 34.69, 52.89 29.05, 8.5 34 M111.5 34 C87.03 34.65, 62.12 31.83, 8.5 34 M8.5 34 C1.64 36.37, -2.53 34.65, 0 25.5 M8.5 34 C7.08 33.8, 1.75 28.31, 0 25.5 M0 25.5 C-0.57 16.53, -1.7 12.19, 0 8.5 M0 25.5 C-0.82 22.2, 1.41 18.73, 0 8.5 M0 8.5 C2.9 1.43, 0.3 2.26, 8.5 0 M0 8.5 C1.71 0.69, 7.22 -0.69, 8.5 0" stroke="#000000" stroke-width="1" fill="none"></path></g><g transform="translate(202.78559755724655 219) rotate(0 40.5 12)"><text x="40.5" y="19" font-family="Cascadia, Segoe UI Emoji" font-size="20px" fill="#000000" text-anchor="middle" style="white-space: pre;" direction="ltr">上传模型</text></g><g stroke-linecap="round"><g transform="translate(236.45631222512952 154) rotate(0 1.1060493935171394 29.874765551686295)"><path d="M1.08 2.71 C1.71 12.55, 3.98 49.45, 3.98 58.03 M-1.77 1.72 C-1.38 10.86, 2.68 45.01, 2.77 54.12" stroke="#000000" stroke-width="1" fill="none"></path></g><g transform="translate(236.45631222512952 154) rotate(0 1.1060493935171394 29.874765551686295)"><path d="M-4.74 31.22 C-2.37 34.95, -4.29 46.52, 4.26 52.26 M-8.02 29.42 C-5.26 39.7, 0.41 49.04, 1.13 53.01" stroke="#000000" stroke-width="1" fill="none"></path></g><g transform="translate(236.45631222512952 154) rotate(0 1.1060493935171394 29.874765551686295)"><path d="M14.38 29.89 C10.83 34.18, 3 46.16, 4.26 52.26 M11.1 28.09 C6.29 39.17, 4.4 49.04, 1.13 53.01" stroke="#000000" stroke-width="1" fill="none"></path></g></g><mask></mask><g stroke-linecap="round" transform="translate(186.28559755724655 315) rotate(0 60 17)"><path d="M8.5 0 M8.5 0 C45.63 0.75, 78.79 -2.28, 111.5 0 M8.5 0 C46.36 0.15, 84.1 -0.47, 111.5 0 M111.5 0 C113.29 2.26, 117.93 3.21, 120 8.5 M111.5 0 C120.42 3.46, 118.55 1.73, 120 8.5 M120 8.5 C117.47 15.88, 119.02 19.19, 120 25.5 M120 8.5 C121.4 14.81, 121.53 19.86, 120 25.5 M120 25.5 C120.38 34.62, 116.29 34.23, 111.5 34 M120 25.5 C116.03 32.76, 117.34 36.67, 111.5 34 M111.5 34 C87.2 33.69, 64.07 32.97, 8.5 34 M111.5 34 C88.96 33.35, 68.41 36.67, 8.5 34 M8.5 34 C1.91 31.33, 3.38 29.96, 0 25.5 M8.5 34 C-0.07 29.77, -0.36 27.3, 0 25.5 M0 25.5 C-2.76 21.33, -0.68 14.6, 0 8.5 M0 25.5 C-0.3 20.5, -0.63 17.81, 0 8.5 M0 8.5 C-2.89 4.52, -0.06 1.48, 8.5 0 M0 8.5 C-3.13 4.13, 5.17 -0.67, 8.5 0" stroke="#000000" stroke-width="1" fill="none"></path></g><g transform="translate(205.78559755724655 320) rotate(0 40.5 12)"><text x="40.5" y="19" font-family="Cascadia, Segoe UI Emoji" font-size="20px" fill="#000000" text-anchor="middle" style="white-space: pre;" direction="ltr">新建工程</text></g><g stroke-linecap="round"><g transform="translate(237.93929404475682 249.99999999999997) rotate(0 0.9539702875876515 28.808869132548566)"><path d="M0.18 -0.92 C1.38 9.06, 4.34 48.25, 5.08 58.97 M-3.17 -3.89 C-2.12 6.47, 2.05 50.99, 3.03 61.5" stroke="#000000" stroke-width="1" fill="none"></path></g><g transform="translate(237.93929404475682 249.99999999999997) rotate(0 0.9539702875876515 28.808869132548566)"><path d="M-11.12 34.89 C-10.01 40.24, -0.77 47.22, 1.54 62.46 M-10.57 33.03 C-6.78 41.39, -4.09 49.65, 2.77 62.86" stroke="#000000" stroke-width="1" fill="none"></path></g><g transform="translate(237.93929404475682 249.99999999999997) rotate(0 0.9539702875876515 28.808869132548566)"><path d="M9.31 32.98 C5.84 38.78, 10.51 46.19, 1.54 62.46 M9.87 31.11 C7.79 39.72, 4.66 48.53, 2.77 62.86" stroke="#000000" stroke-width="1" fill="none"></path></g></g><mask></mask><g stroke-linecap="round" transform="translate(428.17942327053424 291) rotate(0 95.5 38)"><path d="M19 0 M19 0 C79.41 0.79, 134.23 2.68, 172 0 M19 0 C72.53 0.6, 126.78 -0.08, 172 0 M172 0 C187.08 0.33, 192.04 7.31, 191 19 M172 0 C188.92 3.06, 193.69 5.6, 191 19 M191 19 C187.73 31.57, 188.31 43.11, 191 57 M191 19 C191.17 28.4, 191.66 38.18, 191 57 M191 57 C193.88 66.05, 180.77 72.03, 172 76 M191 57 C194.79 68.04, 186.05 79.85, 172 76 M172 76 C122.4 76.67, 66.09 72.04, 19 76 M172 76 C129.85 78.2, 91.19 76.54, 19 76 M19 76 C9.11 74.61, -2.33 66.62, 0 57 M19 76 C3.72 78.51, 4.35 69.28, 0 57 M0 57 C2.54 44.18, -3.28 27.54, 0 19 M0 57 C1.08 46.19, -0.19 39.58, 0 19 M0 19 C-1.83 5.38, 8.89 0.15, 19 0 M0 19 C0.39 9.18, 5.94 -2.08, 19 0" stroke="#000000" stroke-width="1" fill="none"></path></g><g transform="translate(433.17942327053424 305) rotate(0 72 24)"><text x="0" y="19" font-family="Cascadia, Segoe UI Emoji" font-size="20px" fill="#000000" text-anchor="start" style="white-space: pre;" direction="ltr">1.选择模板</text><text x="0" y="43" font-family="Cascadia, Segoe UI Emoji" font-size="20px" fill="#000000" text-anchor="start" style="white-space: pre;" direction="ltr">2.输入工程名称</text></g><g stroke-linecap="round"><g transform="translate(315.17942327053436 335) rotate(0 50.34737096443257 -3.7263092794217485)"><path d="M1.84 1.64 C1.81 1.96, -16.89 0.49, 0.32 -0.52 C17.53 -1.53, 87.8 -3.61, 105.12 -4.41 M-0.6 0.06 C-1.12 -0.32, -20.88 -3.74, -2.29 -5.26 C16.3 -6.79, 93.33 -9.56, 110.93 -9.08" stroke="#000000" stroke-width="1" fill="none"></path></g></g><mask></mask><g stroke-linecap="round"><g transform="translate(239.01968717570685 352.99999999999994) rotate(0 0.7025489244957726 27.302414939254536)"><path d="M0.97 1.61 C1.51 10.24, 3.76 46.13, 3.29 54.59 M-1.95 0.02 C-1.54 9.11, 1.6 41.71, 2.55 50.98" stroke="#000000" stroke-width="1" fill="none"></path></g><g transform="translate(239.01968717570685 352.99999999999994) rotate(0 0.7025489244957726 27.302414939254536)"><path d="M-6.39 31.47 C-1.13 31.18, -0.91 41.2, 4.15 53.75 M-6.75 27.27 C-4.76 34.8, -1.69 43.66, 2.78 52.6" stroke="#000000" stroke-width="1" fill="none"></path></g><g transform="translate(239.01968717570685 352.99999999999994) rotate(0 0.7025489244957726 27.302414939254536)"><path d="M11.31 29.73 C11.26 30.09, 6.15 40.64, 4.15 53.75 M10.95 25.53 C7.01 33.43, 4.13 42.87, 2.78 52.6" stroke="#000000" stroke-width="1" fill="none"></path></g></g><mask></mask><g stroke-linecap="round" transform="translate(182.28559755724655 414) rotate(0 60 17)"><path d="M8.5 0 M8.5 0 C46.66 -5.38, 77.96 -2.44, 111.5 0 M8.5 0 C43.94 -1.99, 80.48 -1, 111.5 0 M111.5 0 C117.28 -1.49, 118.71 3.33, 120 8.5 M111.5 0 C117.7 3.71, 120.72 0.25, 120 8.5 M120 8.5 C123.39 11.49, 119.09 18.59, 120 25.5 M120 8.5 C120.63 13.81, 118.78 20.99, 120 25.5 M120 25.5 C122.33 34.88, 114.11 37.33, 111.5 34 M120 25.5 C120.03 29.61, 115.86 30.02, 111.5 34 M111.5 34 C77.97 32.75, 45.78 36.94, 8.5 34 M111.5 34 C79.06 31.26, 46.22 30.73, 8.5 34 M8.5 34 C6.44 31.41, -1.24 29.23, 0 25.5 M8.5 34 C2.86 33.61, -0.59 31.31, 0 25.5 M0 25.5 C-3.35 18.66, -1.25 17.16, 0 8.5 M0 25.5 C-0.47 21.84, 1.06 17, 0 8.5 M0 8.5 C0.6 5.26, 4.74 -0.71, 8.5 0 M0 8.5 C4.11 -1.36, 1.96 -2.46, 8.5 0" stroke="#000000" stroke-width="1" fill="none"></path></g><g transform="translate(201.78559755724655 419) rotate(0 40.5 12)"><text x="40.5" y="19" font-family="Cascadia, Segoe UI Emoji" font-size="20px" fill="#000000" text-anchor="middle" style="white-space: pre;" direction="ltr">新建场景</text></g><g stroke-linecap="round" transform="translate(429.28559755724655 389) rotate(0 95.5 29)"><path d="M14.5 0 M14.5 0 C59.87 -1.52, 111.18 1.25, 176.5 0 M14.5 0 C77.02 -0.76, 138.28 -0.89, 176.5 0 M176.5 0 C188.87 -1.19, 188.89 5.62, 191 14.5 M176.5 0 C181.71 2.94, 187.11 2.78, 191 14.5 M191 14.5 C189.54 27.5, 193.78 33.2, 191 43.5 M191 14.5 C191.54 19.82, 189.27 27.5, 191 43.5 M191 43.5 C190.36 50.82, 184.69 56.35, 176.5 58 M191 43.5 C192.61 52.11, 185.94 62.04, 176.5 58 M176.5 58 C112.21 63.4, 49.84 61.64, 14.5 58 M176.5 58 C120.62 54.77, 63.62 54.54, 14.5 58 M14.5 58 C1.76 61.07, 3.71 55.14, 0 43.5 M14.5 58 C6.47 60.32, -2.67 49.89, 0 43.5 M0 43.5 C-2.44 34.97, 1.06 27.48, 0 14.5 M0 43.5 C0.63 34.61, -0.3 24.93, 0 14.5 M0 14.5 C2.65 4.86, 4.04 3.23, 14.5 0 M0 14.5 C0.21 2.29, 0.53 -3.8, 14.5 0" stroke="#000000" stroke-width="1" fill="none"></path></g><g transform="translate(434.28559755724655 394) rotate(0 72 24)"><text x="0" y="19" font-family="Cascadia, Segoe UI Emoji" font-size="20px" fill="#000000" text-anchor="start" style="white-space: pre;" direction="ltr">1.输入场景名称</text><text x="0" y="43" font-family="Cascadia, Segoe UI Emoji" font-size="20px" fill="#000000" text-anchor="start" style="white-space: pre;" direction="ltr">2.选择布局</text></g><g stroke-linecap="round"><g transform="translate(316.28559755724666 432) rotate(0 49.156160705160175 -3.6727704488823107)"><path d="M2.12 2.35 C2.22 2.09, -16.77 1.59, 0.78 0.4 C18.34 -0.8, 89.9 -3.9, 107.46 -4.8 M-0.18 1.15 C-0.49 -0.11, -19.25 -2.05, -1.57 -3.86 C16.11 -5.66, 87.93 -10.01, 105.9 -9.68" stroke="#000000" stroke-width="1" fill="none"></path></g></g><mask></mask><g stroke-linecap="round"><g transform="translate(238.58321952461415 453.17647058823525) rotate(0 0.8933455501424987 22.09403283495043)"><path d="M2.76 -1.66 C2.18 5.87, -1.44 35.05, -1.93 43.36 M0.82 3.62 C1.03 11.6, 4.1 39.09, 3.67 45.84" stroke="#000000" stroke-width="1" fill="none"></path></g><g transform="translate(238.58321952461415 453.17647058823525) rotate(0 0.8933455501424987 22.09403283495043)"><path d="M-7.24 22.66 C-5.12 32.53, 4.8 41.34, 7 44.81 M-3.03 26.34 C-0.9 29.19, 0.96 36.17, 4.85 45.11" stroke="#000000" stroke-width="1" fill="none"></path></g><g transform="translate(238.58321952461415 453.17647058823525) rotate(0 0.8933455501424987 22.09403283495043)"><path d="M8.3 22.09 C4.89 32.47, 9.29 41.48, 7 44.81 M12.51 25.78 C10.05 29.09, 7.33 36.24, 4.85 45.11" stroke="#000000" stroke-width="1" fill="none"></path></g></g><mask></mask><g stroke-linecap="round" transform="translate(168.28559755724655 510) rotate(0 72.5 21.999999999999996)"><path d="M11 0 M11 0 C57.02 1.75, 112.94 3.07, 134 0 M11 0 C56.8 2.07, 107.09 1.7, 134 0 M134 0 C144.81 -3.27, 147.14 1.94, 145 11 M134 0 C144.05 -1.69, 141.84 3.88, 145 11 M145 11 C143.12 15.85, 141.46 30.15, 145 33 M145 11 C143.76 16.14, 144.8 21.75, 145 33 M145 33 C141.63 39.66, 139.98 41.35, 134 44 M145 33 C141.39 44.78, 143.6 41.84, 134 44 M134 44 C101 43.02, 69.66 46.55, 11 44 M134 44 C86.77 40.43, 41.23 43.59, 11 44 M11 44 C4.78 43.12, -1.22 43.29, 0 33 M11 44 C4.62 42.76, 3.17 44.42, 0 33 M0 33 C3.95 27.22, 3.23 18.35, 0 11 M0 33 C1.7 24.8, 1.01 20.52, 0 11 M0 11 C0.39 0.03, 1.19 -3.04, 11 0 M0 11 C-4.04 3.01, 4.66 -1.9, 11 0" stroke="#000000" stroke-width="1" fill="none"></path></g><g transform="translate(180.28559755724655 520) rotate(0 60.5 12)"><text x="60.5" y="19" font-family="Cascadia, Segoe UI Emoji" font-size="20px" fill="#000000" text-anchor="middle" style="white-space: pre;" direction="ltr">配置布局面板</text></g><g stroke-linecap="round" transform="translate(436.28559755724643 489) rotate(0 95.50000000000006 29)"><path d="M14.5 0 M14.5 0 C57.24 4.16, 99.66 3.8, 176.5 0 M14.5 0 C63.13 1.21, 115.86 0.02, 176.5 0 M176.5 0 C186.62 -2.24, 190.65 2.58, 191 14.5 M176.5 0 C184.71 3.63, 186.5 1.41, 191 14.5 M191 14.5 C191.57 21.98, 194.29 31.48, 191 43.5 M191 14.5 C191.42 23.24, 188.72 30.38, 191 43.5 M191 43.5 C190.84 52.36, 184.31 59.02, 176.5 58 M191 43.5 C193.71 54.2, 181.73 58.48, 176.5 58 M176.5 58 C118.81 59.64, 63.68 56.91, 14.5 58 M176.5 58 C140.35 56.47, 100.89 55.42, 14.5 58 M14.5 58 C2.44 58.74, -3.9 50.55, 0 43.5 M14.5 58 C0.94 59.4, -3.62 52.77, 0 43.5 M0 43.5 C2 33.73, 1.12 22.98, 0 14.5 M0 43.5 C-1.01 32.52, -1.08 21.08, 0 14.5 M0 14.5 C-3.09 2.92, 1.88 3.01, 14.5 0 M0 14.5 C-2.71 5.47, 3.96 3.67, 14.5 0" stroke="#000000" stroke-width="1" fill="none"></path></g><g transform="translate(441.28559755724643 494) rotate(0 72.00000000000006 24)"><text x="0" y="19" font-family="Cascadia, Segoe UI Emoji" font-size="20px" fill="#000000" text-anchor="start" style="white-space: pre;" direction="ltr">1.点击布局模块</text><text x="0" y="43" font-family="Cascadia, Segoe UI Emoji" font-size="20px" fill="#000000" text-anchor="start" style="white-space: pre;" direction="ltr">2.配置布局属性</text></g><g stroke-linecap="round"><g transform="translate(323.28559755724655 532) rotate(0 49.47921753710932 -2.4784482583504754)"><path d="M1 0.32 C0.8 -0.21, -17.22 -0.99, 0.03 -2.04 C17.28 -3.09, 86.53 -5.05, 104.47 -5.99 M-1.9 -1.98 C-2.68 -2.22, -21.37 1.18, -2.73 1.03 C15.9 0.88, 91.38 -1.71, 109.94 -2.87" stroke="#000000" stroke-width="1" fill="none"></path></g></g><mask></mask><g stroke-linecap="round"><g transform="translate(238.58321952461415 560.1764705882352) rotate(0 -0.6514706967847133 22.737588958475335)"><path d="M0.69 -0.89 C0.33 6.48, -3.11 37.86, -3.12 45.61 M-2.39 -3.84 C-1.82 3.89, 1.52 40.54, 1.82 49.31" stroke="#000000" stroke-width="1" fill="none"></path></g><g transform="translate(238.58321952461415 560.1764705882352) rotate(0 -0.6514706967847133 22.737588958475335)"><path d="M-8.64 24.69 C-4.53 35.49, -2.1 40.85, 5.78 45.66 M-8.21 27.82 C-3.88 35.19, -2.95 39.02, 2.5 48.96" stroke="#000000" stroke-width="1" fill="none"></path></g><g transform="translate(238.58321952461415 560.1764705882352) rotate(0 -0.6514706967847133 22.737588958475335)"><path d="M6.88 23.64 C6.9 34.8, 5.23 40.44, 5.78 45.66 M7.31 26.77 C7.42 34.2, 4.16 38.31, 2.5 48.96" stroke="#000000" stroke-width="1" fill="none"></path></g></g><mask></mask><g stroke-linecap="round" transform="translate(168.28559755724655 617) rotate(0 72.5 17)"><path d="M8.5 0 M8.5 0 C50.23 3.98, 91.78 3.85, 136.5 0 M8.5 0 C57.76 -0.72, 109.77 0.06, 136.5 0 M136.5 0 C144.92 1.83, 144.64 1.08, 145 8.5 M136.5 0 C143.72 -0.81, 149.53 1.76, 145 8.5 M145 8.5 C142.53 11.93, 146.27 12.92, 145 25.5 M145 8.5 C145.42 11.67, 145.97 17.34, 145 25.5 M145 25.5 C146.01 35.1, 140.45 37.36, 136.5 34 M145 25.5 C145.38 33.46, 145.13 34.85, 136.5 34 M136.5 34 C104.17 34.61, 67.48 32.57, 8.5 34 M136.5 34 C106.91 31.91, 80.58 31.43, 8.5 34 M8.5 34 C6.2 32.48, 0.09 34.01, 0 25.5 M8.5 34 C0.94 38.14, 0.14 27.96, 0 25.5 M0 25.5 C-2.61 19.27, -2.79 12.09, 0 8.5 M0 25.5 C0.9 20.37, -0.08 15.94, 0 8.5 M0 8.5 C2.53 0.42, 3.89 2.69, 8.5 0 M0 8.5 C2.76 3.09, 0.92 3.4, 8.5 0" stroke="#000000" stroke-width="1" fill="none"></path></g><g transform="translate(190.28559755724655 622) rotate(0 50.5 12)"><text x="50.5" y="19" font-family="Cascadia, Segoe UI Emoji" font-size="20px" fill="#000000" text-anchor="middle" style="white-space: pre;" direction="ltr">配置单元格</text></g><g stroke-linecap="round" transform="translate(436.28559755724643 590.7680343775394) rotate(0 95.50000000000006 41)"><path d="M20.5 0 M20.5 0 C75.17 -4.7, 120.74 -4.64, 170.5 0 M20.5 0 C55.79 1.97, 88.15 0.18, 170.5 0 M170.5 0 C185.51 -0.7, 194.94 5.9, 191 20.5 M170.5 0 C180.11 1.23, 193.52 3.36, 191 20.5 M191 20.5 C189.82 30.96, 192.39 46, 191 61.5 M191 20.5 C192.04 31.61, 190.67 40.46, 191 61.5 M191 61.5 C191.33 77.16, 186.74 82.74, 170.5 82 M191 61.5 C189.98 75.35, 184.2 85.72, 170.5 82 M170.5 82 C120.13 84.28, 74.22 78.36, 20.5 82 M170.5 82 C134.01 79.15, 94.2 81.33, 20.5 82 M20.5 82 C5.19 85.6, 0.12 72.38, 0 61.5 M20.5 82 C11.24 84.35, -2.74 71.87, 0 61.5 M0 61.5 C-1.34 49.39, -1.4 37.97, 0 20.5 M0 61.5 C1.27 50.09, 0.54 42.44, 0 20.5 M0 20.5 C2.4 7.06, 5.17 2.95, 20.5 0 M0 20.5 C-1.29 11.2, 8.53 3, 20.5 0" stroke="#000000" stroke-width="1" fill="none"></path></g><g transform="translate(441.28559755724643 595.7680343775394) rotate(0 82.00000000000006 36)"><text x="0" y="19" font-family="Cascadia, Segoe UI Emoji" font-size="20px" fill="#000000" text-anchor="start" style="white-space: pre;" direction="ltr">1.点击布局模块</text><text x="0" y="43" font-family="Cascadia, Segoe UI Emoji" font-size="20px" fill="#000000" text-anchor="start" style="white-space: pre;" direction="ltr">2.配置单元格属性</text><text x="0" y="67" font-family="Cascadia, Segoe UI Emoji" font-size="20px" fill="#000000" text-anchor="start" style="white-space: pre;" direction="ltr">3.选择单元格组件</text></g><g stroke-linecap="round"><g transform="translate(323.28559755724655 633.7680343775394) rotate(0 49.48954126254392 -3.2277016723169965)"><path d="M-2.51 -2.07 C-2.12 -2.26, -18.75 -1.54, -0.18 -1.98 C18.39 -2.42, 91.11 -3.85, 108.93 -4.72 M1.32 2.98 C1.47 3.26, -20.87 3.21, -3.06 1.12 C14.75 -0.97, 89.79 -8.49, 108.17 -9.55" stroke="#000000" stroke-width="1" fill="none"></path></g></g><mask></mask><g stroke-linecap="round"><g transform="translate(240.46533797130837 656.4136335322128) rotate(0 -1.6936509082172506 34.88099251994386)"><path d="M0.17 -2.57 C0.33 9.26, -0.79 56.83, -0.55 69.48 M-3.18 2.2 C-3.35 14.53, -3.91 61.18, -3.29 72.33" stroke="#000000" stroke-width="1" fill="none"></path></g><g transform="translate(240.46533797130837 656.4136335322128) rotate(0 -1.6936509082172506 34.88099251994386)"><path d="M-17.67 42.99 C-13.7 53.03, -5.52 61.29, -2.89 72.23 M-12.4 44.9 C-11.71 50.05, -9.63 53.99, -1.61 70.65" stroke="#000000" stroke-width="1" fill="none"></path></g><g transform="translate(240.46533797130837 656.4136335322128) rotate(0 -1.6936509082172506 34.88099251994386)"><path d="M2.85 42.66 C1.75 52.81, 4.85 61.15, -2.89 72.23 M8.12 44.58 C4.64 50.13, 2.55 54.14, -1.61 70.65" stroke="#000000" stroke-width="1" fill="none"></path></g></g><mask></mask><g stroke-linecap="round" transform="translate(136.20654324258737 737.5729972516501) rotate(0 90 17)"><path d="M8.5 0 M8.5 0 C56.35 2.88, 111.77 4.22, 171.5 0 M8.5 0 C60.84 4.83, 111.12 3.74, 171.5 0 M171.5 0 C176.35 0.44, 178.99 -0.25, 180 8.5 M171.5 0 C181.04 -3.88, 181.42 4.01, 180 8.5 M180 8.5 C178.76 9.75, 179.26 13.85, 180 25.5 M180 8.5 C180.47 12.15, 181.1 16.05, 180 25.5 M180 25.5 C177 31.61, 175.4 32.61, 171.5 34 M180 25.5 C175.66 32.83, 176.25 37.42, 171.5 34 M171.5 34 C136.36 33.68, 102.09 35.45, 8.5 34 M171.5 34 C136.7 33.33, 96.25 36.08, 8.5 34 M8.5 34 C-0.28 35.59, -1.32 28.52, 0 25.5 M8.5 34 C4.58 36, -2.64 31.86, 0 25.5 M0 25.5 C-0.81 21.59, 0.68 18.57, 0 8.5 M0 25.5 C1.37 17.87, 0.86 12.69, 0 8.5 M0 8.5 C-1.32 0.71, 5.37 -2.35, 8.5 0 M0 8.5 C-4.49 -1.44, 3.34 3.09, 8.5 0" stroke="#000000" stroke-width="1" fill="none"></path></g><g transform="translate(165.70654324258737 742.5729972516501) rotate(0 60.5 12)"><text x="60.5" y="19" font-family="Cascadia, Segoe UI Emoji" font-size="20px" fill="#000000" text-anchor="middle" style="white-space: pre;" direction="ltr">配置其他组件</text></g><g stroke-linecap="round" transform="translate(436.28559755724643 711.3410316291895) rotate(0 95.50000000000006 65)"><path d="M32 0 M32 0 C81.87 0.82, 123.17 -1.64, 159 0 M32 0 C70.63 -1.83, 107.52 -0.39, 159 0 M159 0 C183.67 -2.07, 188.64 12.99, 191 32 M159 0 C184.48 -1.51, 192.22 9.66, 191 32 M191 32 C187.24 59.03, 191.49 85.69, 191 98 M191 32 C191.42 49.68, 189.83 65.37, 191 98 M191 98 C190.2 118.48, 181.48 129.68, 159 130 M191 98 C190.2 116.38, 183 127.51, 159 130 M159 130 C117.22 131.7, 70.87 131.44, 32 130 M159 130 C112.41 127.88, 66.84 127.3, 32 130 M32 130 C13.02 126.75, -0.12 121.58, 0 98 M32 130 C14.64 130.37, 2.04 122.15, 0 98 M0 98 C-1.92 82.15, -2.91 66.44, 0 32 M0 98 C-0.45 79.62, 1.31 56.01, 0 32 M0 32 C2.46 9.82, 6.94 2.8, 32 0 M0 32 C-1.17 6.92, 13.67 3.74, 32 0" stroke="#000000" stroke-width="1" fill="none"></path></g><g transform="translate(441.28559755724643 716.3410316291895) rotate(0 90.50000000000006 60)"><text x="0" y="19" font-family="Cascadia, Segoe UI Emoji" font-size="20px" fill="#000000" text-anchor="start" style="white-space: pre;" direction="ltr">根据模板说明，配置</text><text x="0" y="43" font-family="Cascadia, Segoe UI Emoji" font-size="20px" fill="#000000" text-anchor="start" style="white-space: pre;" direction="ltr">其他组件属性，例如</text><text x="0" y="67" font-family="Cascadia, Segoe UI Emoji" font-size="20px" fill="#000000" text-anchor="start" style="white-space: pre;" direction="ltr">：导航、主标题、天</text><text x="0" y="91" font-family="Cascadia, Segoe UI Emoji" font-size="20px" fill="#000000" text-anchor="start" style="white-space: pre;" direction="ltr">气、时间等</text><text x="0" y="115" font-family="Cascadia, Segoe UI Emoji" font-size="20px" fill="#000000" text-anchor="start" style="white-space: pre;" direction="ltr"></text></g><g stroke-linecap="round"><g transform="translate(323.28559755724655 753.234857342477) rotate(0 50.28476010487418 -1.6374026394660461)"><path d="M2.55 2.35 C3.11 2.77, -14.08 1.17, 3.23 -0.17 C20.54 -1.51, 89.25 -4.36, 106.43 -5.69 M0.5 1.16 C0.88 0.94, -15.1 -4.14, 2.2 -4.74 C19.51 -5.33, 86.93 -2.08, 104.31 -2.42" stroke="#000000" stroke-width="1" fill="none"></path></g></g><mask></mask><g stroke-linecap="round"><g transform="translate(233.92451126512208 778.0928050705752) rotate(0 2.2389334955782942 31.963768364699092)"><path d="M1.49 0.04 C1.21 11.17, 0.32 55.46, 0.18 66.34 M-1.14 -2.41 C-0.68 7.99, 5.73 52, 5.62 62.45" stroke="#000000" stroke-width="1" fill="none"></path></g><g transform="translate(233.92451126512208 778.0928050705752) rotate(0 2.2389334955782942 31.963768364699092)"><path d="M-6.79 32.62 C0.59 43.18, 3.67 56.21, 9.52 62.62 M-6.87 35.03 C-4.45 40.68, -1.01 45.2, 6.15 60.69" stroke="#000000" stroke-width="1" fill="none"></path></g><g transform="translate(233.92451126512208 778.0928050705752) rotate(0 2.2389334955782942 31.963768364699092)"><path d="M13.67 30.99 C13.54 42.38, 9.1 56, 9.52 62.62 M13.59 33.41 C11.79 39.5, 10.99 44.36, 6.15 60.69" stroke="#000000" stroke-width="1" fill="none"></path></g></g><mask></mask><g stroke-linecap="round" transform="translate(169.61392894190158 848.1904259228887) rotate(0 65 17)"><path d="M8.5 0 M8.5 0 C51.38 -0.42, 89.82 2.59, 121.5 0 M8.5 0 C54.84 2.62, 98.33 1.96, 121.5 0 M121.5 0 C126.02 -0.14, 130.57 0.41, 130 8.5 M121.5 0 C128.39 -4.06, 130.6 5.44, 130 8.5 M130 8.5 C127.45 8.77, 130.69 16.84, 130 25.5 M130 8.5 C130.01 11.88, 129.05 19.11, 130 25.5 M130 25.5 C131.34 28.95, 128.73 36.21, 121.5 34 M130 25.5 C126.84 34.54, 124.17 37.45, 121.5 34 M121.5 34 C92.49 36.64, 61.31 35.71, 8.5 34 M121.5 34 C81.28 36.45, 41.18 34.9, 8.5 34 M8.5 34 C0.4 37.45, 1.62 27.2, 0 25.5 M8.5 34 C6.38 31.86, 3.5 29.88, 0 25.5 M0 25.5 C2.36 21.05, 1.59 9.92, 0 8.5 M0 25.5 C-1.11 21.8, -0.35 17.47, 0 8.5 M0 8.5 C-3.66 2.97, 5.14 -1.3, 8.5 0 M0 8.5 C-3.85 5.55, 7.18 -1.09, 8.5 0" stroke="#000000" stroke-width="1" fill="none"></path></g><g transform="translate(182.61392894190158 853.1904259228887) rotate(0 52 12)"><text x="52" y="19" font-family="Cascadia, Segoe UI Emoji" font-size="20px" fill="#000000" text-anchor="middle" style="white-space: pre;" direction="ltr">保存(发布)</text></g><g stroke-linecap="round"><g transform="translate(235.13812408992123 891.3050548490294) rotate(0 0.8873461558670783 22.994145786061466)"><path d="M0.68 -2.53 C1.76 5.87, 4.15 39.81, 4.17 48.52 M-2.4 2.27 C-1.24 9.99, 3.2 36.98, 3.37 44.19" stroke="#000000" stroke-width="1" fill="none"></path></g><g transform="translate(235.13812408992123 891.3050548490294) rotate(0 0.8873461558670783 22.994145786061466)"><path d="M-10.55 26.68 C-3.19 26.45, 0.74 28.25, 1.45 42.02 M-8.34 22.35 C-3.86 29.23, -2.83 34.27, 5.17 43.42" stroke="#000000" stroke-width="1" fill="none"></path></g><g transform="translate(235.13812408992123 891.3050548490294) rotate(0 0.8873461558670783 22.994145786061466)"><path d="M5.54 25.04 C9.38 25.24, 9.82 27.39, 1.45 42.02 M7.76 20.71 C7.58 28.24, 3.96 33.75, 5.17 43.42" stroke="#000000" stroke-width="1" fill="none"></path></g></g><mask></mask><g stroke-linecap="round" transform="translate(122.04843461326902 945.5337631535787) rotate(0 112.01240718527646 17)"><path d="M8.5 0 M8.5 0 C77.21 -4.38, 145.85 -6.89, 215.52 0 M8.5 0 C61.01 1.35, 111.58 -0.1, 215.52 0 M215.52 0 C221.21 0.56, 220.15 1.14, 224.02 8.5 M215.52 0 C225.34 -1.75, 225.2 4.33, 224.02 8.5 M224.02 8.5 C226.04 13.52, 226.62 22.02, 224.02 25.5 M224.02 8.5 C224.7 13.27, 222.89 18.26, 224.02 25.5 M224.02 25.5 C226.79 29.99, 220.6 35.71, 215.52 34 M224.02 25.5 C223.9 31.13, 219.28 29.89, 215.52 34 M215.52 34 C169.11 32.47, 128.29 28.53, 8.5 34 M215.52 34 C135.09 33.21, 51.52 32.06, 8.5 34 M8.5 34 C2.48 32.75, -0.93 28.33, 0 25.5 M8.5 34 C5.5 38.34, 2.71 27.37, 0 25.5 M0 25.5 C-1.59 20.07, -3.41 15.76, 0 8.5 M0 25.5 C1.03 21.1, 0.7 17.81, 0 8.5 M0 8.5 C1.44 5.12, 2.24 2.24, 8.5 0 M0 8.5 C0.53 2.04, 7.01 -0.38, 8.5 0" stroke="#000000" stroke-width="1" fill="none"></path></g><g transform="translate(173.56084179854543 950.5337631535787) rotate(0 60.5 12)"><text x="60.5" y="19" font-family="Cascadia, Segoe UI Emoji" font-size="20px" fill="#000000" text-anchor="middle" style="white-space: pre;" direction="ltr">获取分析链接</text></g><g mask="url(#mask-qBCCdioQjvRhBtMxi28Cv)" stroke-linecap="round"><g transform="translate(367.757031725185 866.9291633114785) rotate(0 -254.7884464268967 -217.17598815718625)"><path d="M-197.23 -0.31 C-214.52 -0.16, -282.81 73.47, -300.4 1.32 C-317.99 -70.83, -320.72 -359.21, -302.75 -433.19 C-284.79 -507.17, -211.43 -440.92, -192.61 -442.56 M-200.94 -3.01 C-218.71 -2.59, -286.05 75.15, -303.29 3.81 C-320.52 -67.53, -322.87 -357.18, -304.37 -431.04 C-285.88 -504.91, -211.03 -437.61, -192.32 -439.4" stroke="#000000" stroke-width="1" fill="none"></path></g><g transform="translate(367.757031725185 866.9291633114785) rotate(0 -254.7884464268967 -217.17598815718625)"><path d="M-222.9 -441.85 C-216.25 -439.33, -206.72 -440.34, -190.86 -436.2 M-222.04 -441.48 C-211.48 -440.16, -204.59 -438.57, -192.51 -438.24" stroke="#000000" stroke-width="1" fill="none"></path></g><g transform="translate(367.757031725185 866.9291633114785) rotate(0 -254.7884464268967 -217.17598815718625)"><path d="M-215.4 -460.95 C-210.97 -452.69, -203.71 -447.92, -190.86 -436.2 M-214.54 -460.59 C-206.64 -453.24, -202.15 -445.52, -192.51 -438.24" stroke="#000000" stroke-width="1" fill="none"></path></g></g><mask id="mask-qBCCdioQjvRhBtMxi28Cv"><rect x="0" y="0" fill="#fff" width="578.757031725185" height="1413.9291633114785"></rect><rect x="10" y="633.7806640285057" fill="#000" width="81" height="24" opacity="1"></rect></mask><g transform="translate(10 633.7806640285057) rotate(0 102.9685852982883 15.972511125786582)"><text x="40.5" y="19" font-family="Cascadia, Segoe UI Emoji" font-size="20px" fill="#000000" text-anchor="middle" style="white-space: pre;" direction="ltr">编辑工程</text></g><g stroke-linecap="round" transform="translate(432.6041204173837 98.52567411204495) rotate(0 99 77.5)"><path d="M32 0 M32 0 C71.07 1.56, 109.88 -1.95, 166 0 M32 0 C77.91 1.29, 128.6 -1.02, 166 0 M166 0 C186.59 2.86, 197.55 12.71, 198 32 M166 0 C188.43 2.6, 196.05 15.06, 198 32 M198 32 C198.94 68.29, 194.6 103.51, 198 123 M198 32 C195.27 50.77, 196.26 71.92, 198 123 M198 123 C195.95 142.52, 191.08 157.1, 166 155 M198 123 C195.09 146.75, 183.64 159.08, 166 155 M166 155 C117 157.83, 62.53 158.54, 32 155 M166 155 C113.99 154.31, 58.12 156.26, 32 155 M32 155 C8.92 158.14, -1.77 145.24, 0 123 M32 155 C10.18 157.09, -0.58 143.84, 0 123 M0 123 C-2.6 89.16, 3.1 65.14, 0 32 M0 123 C0.2 91.02, 1.71 55.57, 0 32 M0 32 C2.53 14.15, 13.9 3.2, 32 0 M0 32 C1.84 11.72, 14.28 2.16, 32 0" stroke="#000000" stroke-width="1" fill="none"></path></g><g transform="translate(437.6041204173837 116.02567411204495) rotate(0 90.5 60)"><text x="0" y="19" font-family="Cascadia, Segoe UI Emoji" font-size="20px" fill="#000000" text-anchor="start" style="white-space: pre;" direction="ltr">重新上传模板或者组</text><text x="0" y="43" font-family="Cascadia, Segoe UI Emoji" font-size="20px" fill="#000000" text-anchor="start" style="white-space: pre;" direction="ltr">件模型会影响模型数</text><text x="0" y="67" font-family="Cascadia, Segoe UI Emoji" font-size="20px" fill="#000000" text-anchor="start" style="white-space: pre;" direction="ltr">据，但不会影响工程</text><text x="0" y="91" font-family="Cascadia, Segoe UI Emoji" font-size="20px" fill="#000000" text-anchor="start" style="white-space: pre;" direction="ltr">已设置的配置，除非</text><text x="0" y="115" font-family="Cascadia, Segoe UI Emoji" font-size="20px" fill="#000000" text-anchor="start" style="white-space: pre;" direction="ltr">两者冲突</text></g><g stroke-linecap="round"><g transform="translate(319.6041204173838 179.02942557355368) rotate(0 51.52582345126706 -3.4146628125267)"><path d="M-0.25 1.49 C0.01 1.08, -13.77 -0.28, 3.78 -1.3 C21.32 -2.31, 87.35 -3.5, 105 -4.59 M-3.83 -0.17 C-3.89 -0.23, -16.05 3.7, 3.05 2.17 C22.14 0.64, 94.07 -7.96, 110.75 -9.36" stroke="#000000" stroke-width="1" fill="none"></path></g></g><mask></mask><g stroke-linecap="round"><g transform="translate(350.44081446654843 962.1731144753533) rotate(0 46.79001889192597 -0.7419856535983342)"><path d="M-1.84 1.24 C14.52 0.42, 79.6 -2.29, 95.42 -2.73 M2.35 -0.55 C18.82 -1.14, 79.7 1.61, 94.55 0.62" stroke="#000000" stroke-width="1" fill="none"></path></g></g><mask></mask><g stroke-linecap="round" transform="translate(449.5596889977952 891.6474403633083) rotate(0 95.49999999999994 65.00000000000003)"><path d="M32 0 M32 0 C76.22 -2.1, 115.78 1.65, 159 0 M32 0 C80.35 -0.53, 129 -2.29, 159 0 M159 0 C183.7 -3.37, 192.23 11.69, 191 32 M159 0 C176.23 0.31, 193.84 8.96, 191 32 M191 32 C188.53 46.57, 190.92 63.76, 191 98 M191 32 C190.4 49.96, 191.01 66.78, 191 98 M191 98 C187.22 120.78, 179.54 132.97, 159 130 M191 98 C187.06 118.97, 182.21 129.75, 159 130 M159 130 C123.16 126.56, 93.66 133.99, 32 130 M159 130 C125.55 133.04, 94.54 130.93, 32 130 M32 130 C12.19 131.74, -2.29 119.93, 0 98 M32 130 C9.44 134.59, -1.08 118.7, 0 98 M0 98 C3.04 78.45, -2.82 59.11, 0 32 M0 98 C-1.44 81.29, 0.49 65.54, 0 32 M0 32 C-3.91 6.95, 11.11 2.69, 32 0 M0 32 C-1.91 10.38, 11.75 1.8, 32 0" stroke="#000000" stroke-width="1" fill="none"></path></g><g transform="translate(454.5596889977952 932.6474403633083) rotate(0 90.49999999999994 24.00000000000003)"><text x="0" y="19" font-family="Cascadia, Segoe UI Emoji" font-size="20px" fill="#000000" text-anchor="start" style="white-space: pre;" direction="ltr">最终交付给客户或者</text><text x="0" y="43" font-family="Cascadia, Segoe UI Emoji" font-size="20px" fill="#000000" text-anchor="start" style="white-space: pre;" direction="ltr">使用的大屏链接</text></g></svg>